<svg id="Layer_1" data-name="Layer 1" xmlns="http://www.w3.org/2000/svg" viewBox="0 0 1280 800"><title>davids_touch copy</title><path d="M664.17,410.1l-28.53-43.44-39.15-54.34a19.65,19.65,0,0,0-9.08-6.92l-83.5-31.09h0l-5.3-2-34.33-33.78a21.78,21.78,0,0,0-14.69-6.25l-104.43-3c-14.42-5.87-26.2-11.67-33.82-15.66a54,54,0,0,0-22-6l-115.9-6.31a19.39,19.39,0,0,0-9.16,1.76l-40.46,18.76c-.61.33-61,33.86-78.11,31.87-17.65-2.07-46.81,9.88-48,10.39a1,1,0,0,0-.55,1.3A1,1,0,0,0-2,266a1,1,0,0,0,.38-.07c.3-.13,29.91-12.26,47.05-10.25,17.71,2,76.8-30.72,79.24-32.08l40.4-18.73a17.47,17.47,0,0,1,8.21-1.58l115.9,6.32a52,52,0,0,1,21.2,5.78c7.68,4,19.57,9.87,34.13,15.79h0c27.34,11.1,64.13,22.45,100.37,22.45l2.48,0a1,1,0,0,0,1-1,1,1,0,0,0-1-1c-34.44.51-69.63-9.61-96.79-20.18l98.95,2.85a19.76,19.76,0,0,1,13.34,5.68l31.07,30.57L468,260.62a1,1,0,0,0-.87,1.79c.19.11,18.85,11.38,42.69,23.1,21.89,10.77,52.72,24.11,75.69,26.8,2.19,3.27,17.9,26.7,34.66,50.34,23,32.48,37.56,50.67,43.25,54.15-.06.23-.12.45-.2.68a6.41,6.41,0,0,1-4.09,4c-6,1.94-12.59,1.59-19.47-1-7.2-2.75-13.53-8.22-18.28-15.82a76,76,0,0,0-33.81-29.14c-26.83-11.88-23.41-30.11-23.25-30.87a1,1,0,0,0-.21-.85,1,1,0,0,0-.78-.36c-.42,0-28,.42-49.32-2.07l-.08,0-.43,0c-2.27-.27-4.46-.58-6.54-.92-17.78-3.76-19.27-15.82-19.33-16.41a1,1,0,0,0-1.09-.89,1,1,0,0,0-.9,1.09c0,.11.82,7.11,8.18,12.66a12.38,12.38,0,0,1-2.34-1.43,1,1,0,0,0-.83-.21c-.47.1-47.89,9.28-53.75-6.93a1,1,0,0,0-.44-.5L448,318.7a1,1,0,1,0-1.24-1.57L425.48,333.9l-29.62,18.2L387.71,341l14.15-16.3a1,1,0,0,0,.22-.88,26.15,26.15,0,0,0-3.77-8.23,18.27,18.27,0,0,0-15.51-8.31c-4.36,0-7.49,1.32-9.3,3.93-3.14,4.53-1.09,11.36-.57,12.87-.6,2.25-4,15.67-1.9,21.68,1.23,3.52,8.91,17.48,19.74,29.6,17.63,19.72,31.79,21.63,40.67,19.65C436,398,481.78,428,499.57,450.38a76.78,76.78,0,0,1,4.16,13.35l-19-16.35c-6.26-5.39-15.27-6.15-21.44-1.8a16.45,16.45,0,0,0-5.56,6.77c-2.74,6.06-1,13.73,4.91,22.19a64.19,64.19,0,0,0,5.31,6.51,303.54,303.54,0,0,1-29.22-17.63c-1.55-2-20.83-26.51-43.67-40.37C381.14,414.59,357.32,407,340,402.16l-19.22-9.55-15.17-30.68a1,1,0,0,0-1.34-.46,1,1,0,0,0-.45,1.34l15.31,31a1.08,1.08,0,0,0,.45.45l10.63,5.28c-6.85-1.77-11.33-2.79-11.48-2.83l-.2,0-4.12-.08-31.72-32.16a1,1,0,1,0-1.42,1.41l30.28,30.7-27-.5a36.79,36.79,0,0,1-24.75-11.84l-36-39.14c0-10.91-3.62-20.6-7.53-27.94a1,1,0,0,0-.18-.38s0,0,0,0a76.3,76.3,0,0,0-7.2-10.93l-.09-.12c-1.45-1.81-2.41-2.82-2.45-2.87a.86.86,0,0,0-.18-.14c-33.31-21.19-84.39-16.14-121.36-8.17A453.09,453.09,0,0,0,11.81,317a1,1,0,1,0,.78,1.84,451.94,451.94,0,0,1,72.49-22.4c36.57-7.88,87-12.91,119.76,7.84.13.13.41.44.8.89-24.67-1.09-67.1,20.12-126.2,63.11-45.37,33-84.15,67.21-84.54,67.55a1,1,0,0,0-.09,1.42,1,1,0,0,0,.75.33,1,1,0,0,0,.66-.25c1.54-1.36,154.05-135.54,211.18-130a73.66,73.66,0,0,1,6.48,9.79c-3.23,2.3-17.55,11.8-40,16.66C148,339.37,3.54,451.15-2.6,455.9a1,1,0,0,0-.17,1.4,1,1,0,0,0,.79.39,1,1,0,0,0,.61-.21c1.5-1.16,150.2-116.25,175.71-121.78,22.27-4.83,36.73-14.2,40.49-16.84a58.28,58.28,0,0,1,6.86,25.94c-7.74,3.06-26.84,10-32.08,8.95-7.06-1.31-42.88,35.56-50,43l-.1.12c-.38.53-38.42,54-66.78,69.82a1.37,1.37,0,0,0-.21.15c-.31.31-31.95,30.69-74.83,44.9A1,1,0,0,0-2.93,513a1,1,0,0,0,1,.68,1.12,1.12,0,0,0,.31,0c42.12-14,73.52-43.38,75.5-45.27,28.3-15.85,65.78-68.17,67.28-70.29,16.19-16.85,43.53-43.15,48.13-42.33,6.54,1.25,29-7.42,33.19-9.07l35.83,38.92a38.8,38.8,0,0,0,26.13,12.48l34,.63c2.56.58,52.76,12.18,75.68,26.08,22.12,13.42,40.88,37,43,39.73,0,3.56,0,31.09,9.9,35.68a6.79,6.79,0,0,0,2.88.67,6.43,6.43,0,0,0,2.88-.7c6-3,9.63-15.16,10.67-19.22,9,4.88,18.52,9.18,25.29,10,4.89.61,8.9-.44,11.92-3.11,5.45-4.81,5.76-13.19,5.78-14.29.29-1.49,2.26-15.2-15.68-45a62.51,62.51,0,0,0-6.87-9.3c3.66-6.69,1.46-31.1.29-41.71,4.88,7.28,12.74,15.3,23.45,23.91,8,6.43,15.16,11.17,17.19,12.49-1.27,7.58,1.92,16.89,9.5,27.68a110.91,110.91,0,0,0,11.65,13.88,41.61,41.61,0,0,0,1.17,26.92c5.31,12.56,14,15.35,20.42,15.48h.15a7.53,7.53,0,0,0,5.64-2.57,7.94,7.94,0,0,0,1.92-6.43L572.77,472l.24.45c16.25,23.92,27.1,26,33.33,23.45a8.92,8.92,0,0,0,5-5.22,10.21,10.21,0,0,0-.09-7.3c-3.55-8.82-9.59-25.7-10.14-39.57-.7-17.3-16.85-58.7-21.44-70.17a60,60,0,0,0,7.1,3.7,73.84,73.84,0,0,1,32.92,28.37c5,8,11.65,13.73,19.27,16.63,7.31,2.78,14.31,3.14,20.79,1.06a8.39,8.39,0,0,0,5.37-5.26,8.3,8.3,0,0,0,.33-1.28,1.22,1.22,0,0,0,.12-.19,1.08,1.08,0,0,0,0-.64A9.2,9.2,0,0,0,664.17,410.1Zm-289-97.72c1.41-2,4-3.06,7.65-3.06a16.14,16.14,0,0,1,13.83,7.4,24.84,24.84,0,0,1,3.37,7.11l-13.51,15.56-11.62-15.78C374.55,322.68,372.47,316.25,375.15,312.38Zm-2.24,32.76c-1.59-4.54.49-14.47,1.52-18.76L394.8,354l0,0,0,0,34.87,39.24C401.14,398.17,374.58,349.88,372.91,345.14Zm73.47,40.28V396.3A90.32,90.32,0,0,0,432.13,393l-27.24-30.66c7.06,2.55,14.79,2.82,20.44,2.52a77.32,77.32,0,0,0,11.53-1.51C435.85,373.78,444.61,383.56,446.38,385.42Zm5.45,112.93a4.44,4.44,0,0,1-4,0c-7.12-3.3-8.7-22.94-8.75-32.32,3.55,2.4,12.56,8.37,22.53,13.89C460.78,483.13,457.34,495.62,451.83,498.35Zm52.57-25.13a1.64,1.64,0,0,0,0,.22c0,.09-.06,8.45-5.11,12.9-2.57,2.28-6,3.16-10.34,2.62s-9.63-2.51-15.34-5.15c-1.6-1.43-19.73-18-14-30.64a14.57,14.57,0,0,1,4.89-6c5.43-3.82,13.41-3.12,19,1.68l20.8,17.93A21.57,21.57,0,0,1,504.4,473.22Zm-7.56-29.08c-17.37-18.87-49.54-41-60.72-48.41,10.88,2.17,38.42,9.85,52.87,33.85A164,164,0,0,1,496.84,444.14Zm102.29-.24c.57,14.17,6.68,31.3,10.28,40.24a8.19,8.19,0,0,1,.08,5.85,6.93,6.93,0,0,1-3.89,4.06c-5.56,2.23-15.43.11-30.88-22.63l-2.86-5.21a1,1,0,0,0-1.19-.47,1,1,0,0,0-.67,1.09l3.23,22.36a6,6,0,0,1-1.44,4.82,5.47,5.47,0,0,1-4.25,1.89c-5.79-.12-13.73-2.69-18.63-14.27a40.31,40.31,0,0,1-.91-26.11,1,1,0,0,0-.26-1c-.24-.23-24.42-23.68-20.89-40.82a1,1,0,0,0-.45-1.05c-.32-.21-32.58-20.75-42.93-40a1,1,0,0,0-1.87.6c1.32,10.37,3.85,37.34.79,44.48-10.54-11.11-23.8-17.35-34.12-20.77a1,1,0,0,0,.11-.44V385a1,1,0,0,0-.29-.71c-.11-.11-11.1-11.24-9-22.05a1,1,0,0,0-.3-.91,1,1,0,0,0-.93-.24c-.22.05-21.41,5.41-36.09-2.3l-4.58-5.15,38.39-23.59c7.67,15.63,50,8.16,55.1,7.18,3,2.22,8.74,3.84,15.71,5a50.19,50.19,0,0,0,7.26,1.05c19.13,2.3,43,2.19,48.64,2.12-.3,3.86,0,16.09,14.52,26.29C578.35,375.64,598.38,425.18,599.13,443.9Zm22.71-82.4c-18-25.34-34.73-50.44-34.9-50.69a1,1,0,0,0-.72-.44c-22.73-2.52-53.59-15.88-75.47-26.65-12.78-6.28-24.07-12.43-31.81-16.79L497.58,274a2.26,2.26,0,0,0,.2.13l5.39,2h0l83.52,31.1a17.49,17.49,0,0,1,8.15,6.21L634,367.8l28.51,43.4a7.11,7.11,0,0,1,1.12,3.33C659.23,411.25,648.29,398.81,621.84,361.5Z"/><path d="M542.07,403.47a1,1,0,0,0-.5-1.32,1,1,0,0,0-1.32.5c-.27.58-6.18,14.5,19.59,41a1,1,0,0,0,1.43-1.39C536.64,416.93,542,403.65,542.07,403.47Z"/><path d="M1280.54,442.6c-15.59-10.07-39.21-21.67-63.19-19.79-14.45,1.15-22.08,6.61-22.4,6.85a1,1,0,0,0-.4.66c0,.18-2.77,17.65-20.82,23.86-14.85,5.1-28.12,22.83-33.13,30.21a22,22,0,0,1-6.79,6.44c-2.33,1.42-5.41,3.29-8.92,5.36h0c-3.16,1.9-8.89-1.2-16.12-8.7a125.45,125.45,0,0,1-10.59-12.8,1,1,0,0,0-.88-.42c-30.06,2-54.18-21.24-54.42-21.47a1,1,0,1,0-1.4,1.43,75.4,75.4,0,0,0,7.7,6.24l-15,9c-8.09-8.32-14.46-15.27-17-18.06a53.55,53.55,0,0,1,14.13-1.09,87.52,87.52,0,0,1,13.35,2.84c13.85,3.64,31.09,8.16,52.18,1,27.91-9.48,38.41-20.39,39.27-21.33,1.16-1,18.57-16.63,11.44-40a1,1,0,0,0-1.24-.66,1,1,0,0,0-.67,1.24c6.93,22.7-10.68,37.74-10.86,37.88l-.11.1c-.1.11-10.47,11.31-38.48,20.83-20.51,7-37.43,2.53-51-1a88.67,88.67,0,0,0-13.68-2.91c-6.08-.54-14.39.62-24.69,3.46a83.19,83.19,0,0,0-23.19,10.56c-6.74,4.38-17.69,11.62-31.57,21.2-9.93,6.85-20,13.47-30,19.68a47,47,0,0,1-14.47,6c7.66-9.56,43.06-50.39,107.17-75.64l.15-.08c.92-.55,21.59-13.27,26.18-29.73,3.95,5.29,16.72,19.64,38.41,18.28.46,0,45.78-2.2,52.29-46.31a51.61,51.61,0,0,0-.57-15.28l32.32-20.24c-4,10.52-3.87,18.7.36,24.34,5.41,7.23,16.07,8.39,22.33,8.39l-21,10.4a1,1,0,0,0-.54.67,1.05,1.05,0,0,0,.19.84l15.92,20.39a1,1,0,0,0,.79.39,1.09,1.09,0,0,0,.25,0c70.29-18.51,97.39-4.68,97.66-4.54a1,1,0,1,0,.94-1.76c-1.1-.6-27.74-14.3-98.47,4.2l-6-7.68c7.17-4,52.53-27.55,103.78-16.27a1,1,0,0,0,.43-2c-52.58-11.58-99,13-105.46,16.63l-7.52-9.63,24.27-12a1,1,0,0,0,.52-1.19,1,1,0,0,0-1.08-.7c-.18,0-18.3,2.11-25.38-7.36-4.14-5.54-3.79-14,1-25.23a1,1,0,0,0-1.45-1.24l-34.3,21.47a50.75,50.75,0,0,0-3.57-10.63,1,1,0,1,0-1.81.84,49.06,49.06,0,0,1,3.67,11.5,1.29,1.29,0,0,0,0,.19,52.09,52.09,0,0,1,.69,15.18c-6.27,42.46-50,44.6-50.42,44.61-25.2,1.55-37.79-19-37.91-19.22a1,1,0,0,0-1.85.33c-3,16.19-24.3,29.72-25.7,30.59-70.17,27.66-106.21,73.9-109.34,78.05a45.9,45.9,0,0,1-15.42-.17,116.78,116.78,0,0,1-12.39-2.94h0a80.22,80.22,0,0,1-15.52-6.29c-5.18-2.84-8.4-6.68-9.55-11.42-1.85-7.67,2.11-15.79,3.89-18.91l13.87,21.63a7.6,7.6,0,0,0,6.45,3.52h9.2a12.7,12.7,0,0,0,11.26-6.78l3-5.72a11.11,11.11,0,0,0-3.56-14.49l-.19-.13a79.56,79.56,0,0,0-14.26-7.86c5.31-3.84,12.19-8.83,16.47-12a30.12,30.12,0,0,1,3.26-2l.06,0c3.23-1.81,8.06-4.22,13.58-6.85,2.74,1.43,17.84,9.73,18.68,18.08a1,1,0,0,0,1,.89h.1a1,1,0,0,0,.89-1.1c-.85-8.47-13.63-16.29-18.42-18.94,18.16-8.57,42.14-19,42.5-19.11a1,1,0,0,0,.56-.62c7-22.83,36.54-50.17,36.84-50.44a1,1,0,0,0,.06-1.42,1,1,0,0,0-1.41-.06s-1.8,1.66-4.52,4.4h0c-3.09,3-24.67,3.79-38.41,3.6a1,1,0,0,0-.92.57,1,1,0,0,0,.14,1.07l17.29,20.59c-5.23,7.55-8.86,14.46-10.83,20.66l-5.46,2.38-39.68-41.25a1,1,0,0,0-1.41,0,1,1,0,0,0,0,1.42l19.9,20.68c-15.45,7.92-35.06,6.16-37.78,5.86a68.73,68.73,0,0,1-6.17-5.78c-6.31-12-4.37-26.51-4.35-26.65a1,1,0,0,0-.86-1.13,1,1,0,0,0-1.12.85,47.35,47.35,0,0,0-.34,6.77c-20.08,5.42-64.88-4.65-70.12-5.86a64.24,64.24,0,0,1-2.12-7.6,1,1,0,0,0-2,.38,63.13,63.13,0,0,0,2.21,8c-3.15,5.42-13,9.52-28.7,11.86a191.66,191.66,0,0,1-23.4,1.92,44.59,44.59,0,0,1-3.35-8.21,1,1,0,0,0-1.23-.7,1,1,0,0,0-.7,1.23,45.32,45.32,0,0,0,3.3,8.26c-18.1,8.87-49.6,14.18-52.55,14.66-4.33-1.91-8.91-5.26-11-9.6-2.55-5.28-.55-10.5,6-15.52C717,364.16,743.37,364,743.63,364a.94.94,0,0,0,.34-.07l41.36-15.15a16.54,16.54,0,0,1,5.7-1h99.6l-4.51,5.46a1,1,0,0,0,.13,1.41,1,1,0,0,0,.64.22,1,1,0,0,0,.77-.36l5.84-7.07c7.17-8.07,47.64-6.81,48-6.8a.84.84,0,0,0,.49-.11l59.42-30.65a25.83,25.83,0,0,1,10.79-2.83l8.93-.34a66.59,66.59,0,0,0,23.88-5.38l16.35-7a45,45,0,0,1,17.89-3.67h0l38.74-1h0a25,25,0,0,0,9.54-1.88l31.19-11.57a96.47,96.47,0,0,1,22.74-6.2l37.42-6.86a1.09,1.09,0,0,0,.24-.07c.3-.15,30.93-14.29,36.09-16.87,5-2.48,24.6-4.77,24.8-4.8a1,1,0,0,0-.23-2c-.83.09-20.16,2.35-25.46,5-5,2.48-33.86,15.83-35.93,16.79L1181.25,268a97.67,97.67,0,0,0-23.14,6.31l-31.2,11.57a23.18,23.18,0,0,1-8.84,1.74h0l-38.74,1h0a47.09,47.09,0,0,0-18.65,3.83l-16.35,7a64.6,64.6,0,0,1-23.16,5.21l-8.93.34a27.78,27.78,0,0,0-11.64,3.05l-59.18,30.54c-3.81-.12-40.81-1-49,7.14H791a18.32,18.32,0,0,0-6.39,1.14L743.45,362c-2.42,0-28,.85-47.31,15.78-9.16,7.06-8.61,13.67-6.53,18,2.28,4.7,7.37,8.5,12.29,10.64l.17.07c3.57,1.53,7,2.18,9.25,1.63s5.95-.38,10.71-.16c11.27.49,28.26,1.25,44-6.93,3.53.17,35,1.37,53.92-9.64,4.29,1.63,37.47,13.81,66.58,11,2.43,2.6,16.5,17,30.62,17h.33l-17.38,25.18a33.78,33.78,0,0,0-3.35,2.08c-7.28,5.44-22.09,16.08-23.9,17.38l-17.35,3.2h0a.51.51,0,0,0-.17.07.62.62,0,0,0-.19.07h0a.74.74,0,0,0-.13.12,1.14,1.14,0,0,0-.15.16h0c-.31.45-7.54,11.25-5,21.82,1.28,5.32,4.83,9.59,10.53,12.71a80.36,80.36,0,0,0,15,6.17c-1.83,7.2-12.56,54.23,5.94,100,4.53,11.2,9.56,14.88,13.28,15.88a1.06,1.06,0,0,0,.47.3l.25,0a.91.91,0,0,0,.4-.1,9.63,9.63,0,0,0,1.31.1c3.12,0,6.16-1.6,8.7-4.61a34.1,34.1,0,0,0,5.67-9.69c3,4.5,11.53,16,20.68,16q.6,0,1.2-.06a10.76,10.76,0,0,0,4-1.32l.14-.08c4.4-2.51,8.08-8.28,11-17.23a1.12,1.12,0,0,0,.05-.31V573.76a36.63,36.63,0,0,0,8.85-9.13c4.12-5.89,8.94-16,8.74-31,3.43-1.89,21.5-12.72,27.46-33.51l4.91,5.88-9.51,27.84a16,16,0,0,0-.85,4.66l-.9,27.85a57.38,57.38,0,0,0,5.37,26.41c4,8.45,8.53,13.14,13.37,13.95,12.16,2,20.39.55,26.47-12.91,5.43-12-1.86-25.36-3.63-28.29,1.2-1.94,4.4-8.58,1.92-21.41,2.61-1.06,9.76-5.47,12.1-22.41,5.22-.13,31.84-1,45-4.56,11.37-3.09,36.75-18.19,47.14-24.54a24,24,0,0,0,7.4-7c4.9-7.21,17.85-24.54,32.13-29.44,17.55-6,21.49-22.1,22.07-25,3.36-2.15,33-19.1,83,13.22a1,1,0,1,0,1.08-1.68ZM954.82,376.53c6.51,0,24.07-.09,32.94-2.21-2.43,2.54-5.22,5.58-8.11,9q-5.22,6.11-9.28,11.77Zm-232.7,29.38c-4.93-.22-8.82-.4-11.29.22a10.17,10.17,0,0,1-4.51-.31c9.45-1.72,34.26-6.71,49.63-14.26a23.68,23.68,0,0,0,7.6,8.38C748.75,407.07,732.81,406.38,722.12,405.91ZM766,399c-3.34-1.48-6-4.56-7.93-7.77,8.18-.19,42.66-1.68,51.83-13.45,1.77,4.51,4.4,9.43,8.05,12.37C799.45,400.27,768.63,399.09,766,399Zm54.27-9.63c-3.89-2.48-6.68-7.69-8.54-12.44,4,.9,14.36,3.13,26.22,4.86,19.56,2.86,34.06,3.12,43.15.8a47.23,47.23,0,0,0,4.21,17.83C855.73,402.93,822.16,390.07,820.29,389.34Zm100,29.36a1,1,0,0,0,0-1.08,1,1,0,0,0-1-.48c-8,1-16.43-3.77-22.61-8.43,1.4.09,3.18.16,5.23.16,8.08,0,20.45-1.1,31.1-6.72l.07-.06,17.83,18.54c-12,5.28-34.82,15.42-47,21.74ZM873.4,465.84a1.18,1.18,0,0,0,.4-.17l5.73-4.13a76.89,76.89,0,0,1,15.06,8.15l.19.13a9.11,9.11,0,0,1,2.9,11.89l-3,5.72a10.71,10.71,0,0,1-9.49,5.71H876a5.63,5.63,0,0,1-4.77-2.6l-13.93-21.73ZM1051,461.73c9.92,6.82,26.69,15.66,45.92,14.57a126.28,126.28,0,0,0,10.43,12.56c5.39,5.59,9.94,8.81,13.6,9.65-10.09,5.85-22.34,12.55-30.43,15.56-11-.47-36.73-24.66-54.83-43.17Zm-8.5,57.92a24.87,24.87,0,0,0-1.26-2.21c2-.76,24.49-9.26,31.71-10,5.18,3.76,9.9,6.58,13.74,7.88C1073.49,518.7,1046.79,519.53,1042.46,519.65ZM923.19,504.88c7-4.36,14-8.93,21-13.63L923.3,512a1,1,0,0,0-.29.72c.27,38.23-7.51,45.65-9.69,47-4.07-6.07-12.7-7-18.67-6.78,1.72-6,8.34-30.55,3.77-40.58A48.57,48.57,0,0,0,923.19,504.88Zm-40,102.62c-18.22-45.07-7.72-91.41-5.88-98.68q5.47,1.57,11.61,2.7a48.44,48.44,0,0,0,7.28.75c2.33,3.81,2.47,12,.39,23.64-1.42,7.9-3.44,15-4,17.07a37.89,37.89,0,0,0-4.16.52,1,1,0,0,0-.8,1.17,1,1,0,0,0,1.17.79c.06,0,1.64-.3,4-.47,10.71,24.92,3.44,60.26,1.89,67.06C891.42,621,887.18,617.46,883.16,607.5Zm21,11.06c-2.26,2.68-4.94,4-7.61,3.87,1.62-7.1,8.76-42.23-1.73-67.55,5.67-.16,13.73.71,17.09,6.3v34.87A34.82,34.82,0,0,1,904.18,618.56Zm34,3.2c.57-7.33,1.79-32-4.78-54.34,4.65-.27,10.5.63,13.1,6V607C944.11,614.14,941.33,619.08,938.13,621.76Zm17.59-58.36a35.67,35.67,0,0,1-7.91,8.35c-2.94-5.14-8.48-6.38-13.22-6.34,4.49-4.17,15.1-15.21,15.76-27.21a19.71,19.71,0,0,0-4.84-14.1,25.67,25.67,0,0,1,3.82,0,21.52,21.52,0,0,1,2.74.39h0A17.15,17.15,0,0,1,964,533.26C964.3,547.88,959.67,557.72,955.72,563.4Zm9.68-31.75a18.91,18.91,0,0,0-10.72-8.5,80.13,80.13,0,0,0,12.81-11.28c8.83-9.7,13.21-20,12.74-29.87A25.73,25.73,0,0,1,992,498C986.87,518.49,969.36,529.41,965.4,531.65Zm40.82,73c-4.1-.68-8.21-5.11-11.89-12.83a55.26,55.26,0,0,1-5.18-25.48l.9-27.86a13.86,13.86,0,0,1,.74-4.08l9.7-28.37a1,1,0,0,0-.18-1l-6.37-7.62a28.09,28.09,0,0,0-14.22-18.07.89.89,0,0,0-.36-.19,25.86,25.86,0,0,0-4.89-2.05,1,1,0,1,0-.5,1.94,23.23,23.23,0,0,1,4.16,1.7c2.09,22.49-23.18,39.8-26,41.69a27.85,27.85,0,0,0-8.58-.18.55.55,0,0,0-.18,0,28.14,28.14,0,0,0-4,.81,1,1,0,0,0-.65,1.26,1,1,0,0,0,1.26.65,23.06,23.06,0,0,1,3.14-.69,18.06,18.06,0,0,1,5.29,13.71c-.78,14-16.84,27.38-17,27.51l0,0a31.53,31.53,0,0,0-5.2,1,1,1,0,1,0,.61,1.9,30.47,30.47,0,0,1,4.57-.95c7.26,24.32,5.06,51.57,4.68,55.58a8.81,8.81,0,0,1-3,.9c-9.49,1.08-19.23-13.78-20.83-16.33a40,40,0,0,0,1.72-11.71V561.61c2.88-1.31,11.3-8.57,11.08-48.53l28.28-28c13.84-9.54,24.74-16.75,31.46-21.12a81.25,81.25,0,0,1,22.64-10.31c2.64-.73,5.16-1.34,7.55-1.85,4,4.48,33.37,36.92,55.74,53.92-9.21,1.82-29.41,9.53-30.34,9.89a1.13,1.13,0,0,0-.26.16c-5.25-7.13-13.06-10.48-19.86-12a1,1,0,0,0-.49-.11,50.88,50.88,0,0,0-13.47-1.07,1,1,0,0,0-.91,1.09,1,1,0,0,0,1.09.9,48.13,48.13,0,0,1,12.5.94c5.28,18.4,3.43,25.17.92,27.59a4.73,4.73,0,0,1-2.83,1.3,21.28,21.28,0,0,0-2.22-.2h0a1,1,0,0,0-.45-.05l-.26,0a31.61,31.61,0,0,0-13.44,3.29,1,1,0,0,0,1,1.76,24.13,24.13,0,0,1,2.3-1,7.74,7.74,0,0,0-2.69,3.85c-1.08,3.77,1.3,8.28,7,13.42-7.93,1.78-12.09,10.07-12.27,10.44a1,1,0,1,0,1.79.88c0-.09,4.24-8.45,11.78-9.54.23,0,.45,0,.68-.07,19.18,16.07,12.33,43,11.35,46.5C1017.42,605.8,1012.43,605.72,1006.22,604.68Zm24.32-11.75c-1.94,4.28-4.07,7.23-6.52,9.18,1.71-7.48,5.07-29.77-10.63-44.76,4.23.76,8.7,3.66,13.36,8.71C1027.44,567.15,1035.9,581.05,1030.54,592.93Zm-3.18-29.13c-5.67-5.86-11.19-8.75-16.44-8.64-6-5-8.72-9.35-7.81-12.54,1.34-4.69,9.86-6.22,11.28-6.45a7.84,7.84,0,0,0,2.76.23,16.89,16.89,0,0,1,11.4,7.38C1030.89,555.19,1028.55,561.51,1027.36,563.8Zm2.52-21.58a19,19,0,0,0-9.42-7,5.43,5.43,0,0,0,.76-.62c4.14-4,4.11-13.56-.06-28.53,7.23,1.88,15.3,6,19.67,14.8C1038.93,535.42,1033.15,541.05,1029.88,542.22Z"/></svg>